<svg xmlns="http://www.w3.org/2000/svg" width="71" height="100" fill="none" viewBox="0 0 71 100">
  <path fill="#00507C" d="m25.728 50.291-3.895-3.894a.937.937 0 0 0-.664-.273h-.637a8.084 8.084 0 0 0 1.72-5A8.124 8.124 0 0 0 14.125 33 8.124 8.124 0 0 0 6 41.124a8.124 8.124 0 0 0 8.126 8.124c1.886 0 3.621-.64 5-1.718v.636c0 .25.098.489.273.665l3.895 3.894a.934.934 0 0 0 1.325 0l1.105-1.106a.942.942 0 0 0 .004-1.328Zm-11.602-4.167c-2.762 0-5-2.234-5-5 0-2.761 2.234-5 5-5 2.761 0 5 2.235 5 5 0 2.762-2.235 5-5 5Z"/>
</svg>
